<svg viewBox="-6 -3 44 46" xmlns="http://www.w3.org/2000/svg" fill="none">
  <path transform="rotate(-28 16 20.3)" fill="#2747ff" fill-rule="evenodd" d="M16 2.5C22.9 2.5 28 7.4 28 14C28 19.9 24.2 23.3 19.6 24.3C18.9 24.5 18.5 25.1 18.5 25.9L19 34.3C19.1 36.6 17.7 38.2 16 38.2C14.3 38.2 12.9 36.6 13 34.3L13.5 25.9C13.5 25.1 13.1 24.5 12.4 24.3C7.8 23.3 4 19.9 4 14C4 7.4 9.1 2.5 16 2.5ZM10.9 9a1.3 1.3 0 1 0 2.6 0a1.3 1.3 0 1 0-2.6 0ZM14.7 9a1.3 1.3 0 1 0 2.6 0a1.3 1.3 0 1 0-2.6 0ZM18.5 9a1.3 1.3 0 1 0 2.6 0a1.3 1.3 0 1 0-2.6 0ZM10.9 13.4a1.3 1.3 0 1 0 2.6 0a1.3 1.3 0 1 0-2.6 0ZM14.7 13.4a1.3 1.3 0 1 0 2.6 0a1.3 1.3 0 1 0-2.6 0ZM18.5 13.4a1.3 1.3 0 1 0 2.6 0a1.3 1.3 0 1 0-2.6 0ZM10.9 17.8a1.3 1.3 0 1 0 2.6 0a1.3 1.3 0 1 0-2.6 0ZM14.7 17.8a1.3 1.3 0 1 0 2.6 0a1.3 1.3 0 1 0-2.6 0ZM18.5 17.8a1.3 1.3 0 1 0 2.6 0a1.3 1.3 0 1 0-2.6 0Z"/>
</svg>
